<svg xmlns="http://www.w3.org/2000/svg" width="32" height="32"><g fill="none"><path fill="#3965BD" d="M26.924 3.968L24.932 26.44l-8.953 2.499-8.929-2.496L5.06 3.968z"/><path fill="#7ACCEE" d="M24.842 26.563l2.082-22.595H15.992v24.971z"/><path fill="#000" d="M9.622 14.142l.245 2.756h6.125v-2.756zM15.992 8.562H9.129l.249 2.757h6.614zM15.992 24.168V21.3l-.012.004-3.048-.829-.195-2.199H9.989l.384 4.328 5.606 1.568z"/><path fill="#000" d="M19.353 16.898l-.318 3.575-3.052.83v2.867l5.611-1.566.041-.465.643-7.257.067-.74.494-5.58h-6.856v2.757h3.856l-.249 2.823h-3.607v2.756z"/></g></svg>