<svg xmlns="http://www.w3.org/2000/svg" xmlns:xlink="http://www.w3.org/1999/xlink" width="24" height="24"><defs><path id="a" d="M0 17.339V0h7.044v17.339z"/></defs><g fill="none" fill-rule="evenodd"><path fill="#2979FF" d="M2.2 18.75h17.601V7.5H2.2v11.25zm17.601-13.5H11L8.801 3H2.2A2.23 2.23 0 0 0 0 5.25v13.5A2.23 2.23 0 0 0 2.2 21h17.601A2.23 2.23 0 0 0 22 18.75V7.5a2.23 2.23 0 0 0-2.199-2.25z"/><g transform="translate(16 6)"><mask id="b" fill="#fff"><use xlink:href="#a"/></mask><path fill="#FF5370" d="M5.993 4.937c.314-.049.69-.098.969-.27L6.514 9.3c-.071.072-.59.682-.745.64-.182-.05.25-.492.29-.56.46-.802-.19-.988-.701-.365.044-.117.055-.258-.046-.328-.181-.126-.321.533-.342.606-.302.14-.607.871-.757.4-.195-.608.89-1.57.799-2.19-.091-.618-.398.158-.474.372-.212.597-.505 1.233-.64 1.851-.823.768.115-1.083-.23-1.137.04.006-1.444 2.317-.876.687.24-.692.062-.98-.274-.102-.08.21-.336.757-.153.982.284.35.77-.112.908-.386-.107.542.239.591.606.272.068.547.736-.016.89-.186-.05.135-.764 1.761-.238 1.447.276-.165.386-1.024.523-1.339.134-.309 1.037-1.519.732-.666-.066.184-.504.503-.437.744.176.625.909-.105 1.122-.323l-.26 2.511c-.02.2.02.576-.108.74-.317.406-1.482.463-1.927.502-.821.072-3.004.197-3.4-.698-.293-.663-.155-1.812-.218-2.546.374.303.886-.299 1.08-.54-.026.091-.417 1.371 0 1.015.272-.234.31-1.086.41-1.422.036-.117.416-1.127-.033-.91-.138.066-.167.48-.215.591-.111.25-.328.622-.57.77-.718.441-.47-.569-.331-.985.124-.368.302-.806.576-1.089.114-.118.259-.338.454-.319.132.013.179.193.26.204.1.014.389.541.343-.062-.03-.41-.582-.529-.873-.428C1.002 7.278.603 8.325.447 8.92L.033 4.67c.732.45 1.944.393 2.772.42 1.059.032 2.138.012 3.188-.152m-2.528 8.745c.909 0 1.612-.152 1.95-.243a3.52 3.52 0 0 0 .563-.195l-.426.833-.14 2.716c0 .302-.857.546-1.915.546-1.057 0-1.914-.244-1.914-.546l-.176-2.687-.451-.859c.14.065.326.13.558.192a7.668 7.668 0 0 0 1.95.243m.83-9.84l.38-1.638L6.533.02c.046-.047.19-.006.325.118s.216.268.176.314c-.011.013-.028.018-.052.016l-1.73 2.04-.303 1.37c1.207.085 2.046.275 2.046.496 0 .301-1.566.545-3.498.545C1.566 4.918 0 4.674 0 4.373c0-.3 1.566-.545 3.497-.545.274 0 .54.005.797.014" mask="url(#b)"/></g></g></svg>