<svg xmlns="http://www.w3.org/2000/svg" width="24" height="24"><g fill="none" fill-rule="evenodd"><path fill="#64FFDA" d="M2.2 18.75h17.601V7.5H2.2v11.25zm17.601-13.5H11L8.801 3H2.2A2.23 2.23 0 0 0 0 5.25v13.5A2.23 2.23 0 0 0 2.2 21h17.601A2.23 2.23 0 0 0 22 18.75V7.5a2.23 2.23 0 0 0-2.199-2.25z"/><path fill="#FFCB6B" d="M21.216 11l-5.708 5.247-3.19-2.404L11 14.61l3.144 2.89L11 20.387l1.317.77 3.19-2.404L21.218 24 24 22.647V12.352L21.216 11zm-4.046 6.5l4.046-3.048v6.097l-4.046-3.05z"/></g></svg>